# Blender v2.80 (sub 74) OBJ File: 'gso_reflex_axis_gyro.blend'
# www.blender.org
mtllib gso_rag_drum.mtl
o Cylinder_Cylinder.001
v 0.000000 -0.350000 -0.000000
v 0.000000 0.350000 -0.000000
v 0.000000 -0.350000 -0.840000
v 0.000000 0.350000 -0.840000
v 0.420000 -0.350000 -0.727461
v 0.420000 0.350000 -0.727461
v 0.363731 -0.175000 -0.210000
v 0.363731 0.175000 -0.210000
v 0.840000 -0.350000 0.000000
v 0.840000 0.350000 0.000000
v 0.727461 -0.350000 0.420000
v 0.727461 0.350000 0.420000
v 0.420000 -0.350000 0.727461
v 0.420000 0.350000 0.727461
v 0.000000 -0.175000 0.420000
v 0.000000 0.175000 0.420000
v -0.420000 -0.350000 0.727461
v -0.420000 0.350000 0.727461
v -0.727461 -0.350000 0.420000
v -0.727461 0.350000 0.420000
v -0.840000 -0.350000 0.000000
v -0.840000 0.350000 0.000000
v -0.363731 -0.175000 -0.210000
v -0.363731 0.175000 -0.210000
v -0.420000 -0.350000 -0.727461
v -0.420000 0.350000 -0.727461
vt 0.265625 0.139648
vt 0.265625 0.148438
vt 0.269531 0.147461
vt 0.265625 0.139648
vt 0.269531 0.147461
vt 0.265625 0.148438
vt 0.265625 0.136719
vt 0.265625 0.143555
vt 0.269531 0.143555
vt 0.269531 0.136719
vt 0.269531 0.142578
vt 0.269531 0.142578
vt 0.272461 0.136719
vt 0.272461 0.143555
vt 0.267578 0.142578
vt 0.267578 0.138672
vt 0.274414 0.139648
vt 0.274414 0.139648
vt 0.269531 0.138672
vt 0.274414 0.143555
vt 0.274414 0.136719
vt 0.272461 0.135742
vt 0.272461 0.135742
vt 0.265625 0.136719
vt 0.265625 0.143555
vt 0.261719 0.143555
vt 0.261719 0.136719
vt 0.269531 0.132812
vt 0.269531 0.132812
vt 0.272461 0.136719
vt 0.272461 0.143555
vt 0.269531 0.143555
vt 0.269531 0.136719
vt 0.265625 0.135742
vt 0.265625 0.135742
vt 0.265625 0.142578
vt 0.265625 0.138672
vt 0.261719 0.132812
vt 0.261719 0.132812
vt 0.261719 0.143555
vt 0.261719 0.136719
vt 0.258789 0.135742
vt 0.258789 0.135742
vt 0.258789 0.143555
vt 0.258789 0.136719
vt 0.256836 0.139648
vt 0.256836 0.139648
vt 0.261719 0.136719
vt 0.261719 0.143555
vt 0.265625 0.143555
vt 0.265625 0.136719
vt 0.261719 0.142578
vt 0.261719 0.142578
vt 0.256836 0.136719
vt 0.256836 0.143555
vt 0.261719 0.138672
vt 0.261719 0.147461
vt 0.261719 0.147461
vt 0.267578 0.138672
vt 0.267578 0.142578
vt 0.272461 0.143555
vt 0.272461 0.136719
vt 0.261719 0.136719
vt 0.261719 0.143555
vn 0.0000 -1.0000 0.0000
vn 0.0000 1.0000 0.0000
vn 0.2588 0.0000 -0.9659
vn 0.5544 -0.7682 0.3201
vn 0.5544 0.7682 0.3201
vn 0.9941 0.0000 0.1081
vn 0.0000 -0.7682 -0.6402
vn 0.0000 0.7682 -0.6402
vn 0.4034 0.0000 -0.9150
vn 0.9659 0.0000 0.2588
vn 0.7071 0.0000 0.7071
vn -0.5544 -0.7682 0.3201
vn -0.5544 0.7682 0.3201
vn -0.5907 0.0000 0.8069
vn 0.5907 0.0000 0.8069
vn -0.7071 0.0000 0.7071
vn -0.9659 0.0000 0.2588
vn -0.4034 0.0000 -0.9150
vn -0.9941 0.0000 0.1081
vn -0.2588 0.0000 -0.9659
usemtl Material
s off
f 1/1/1 3/2/1 5/3/1
f 2/4/2 6/5/2 4/6/2
f 3/7/3 4/8/3 6/9/3 5/10/3
f 1/1/4 5/3/4 7/11/4
f 2/4/5 8/12/5 6/5/5
f 5/13/6 6/14/6 8/15/6 7/16/6
f 1/1/7 7/11/7 9/17/7
f 2/4/8 10/18/8 8/12/8
f 7/19/9 8/12/9 10/20/9 9/21/9
f 1/1/1 9/17/1 11/22/1
f 2/4/2 12/23/2 10/18/2
f 9/24/10 10/25/10 12/26/10 11/27/10
f 1/1/1 11/22/1 13/28/1
f 2/4/2 14/29/2 12/23/2
f 11/30/11 12/31/11 14/32/11 13/33/11
f 1/1/12 13/28/12 15/34/12
f 2/4/13 16/35/13 14/29/13
f 13/33/14 14/32/14 16/36/14 15/37/14
f 1/1/4 15/34/4 17/38/4
f 2/4/5 18/39/5 16/35/5
f 15/37/15 16/36/15 18/40/15 17/41/15
f 1/1/1 17/38/1 19/42/1
f 2/4/2 20/43/2 18/39/2
f 17/41/16 18/40/16 20/44/16 19/45/16
f 1/1/1 19/42/1 21/46/1
f 2/4/2 22/47/2 20/43/2
f 19/48/17 20/49/17 22/50/17 21/51/17
f 1/1/7 21/46/7 23/52/7
f 2/4/8 24/53/8 22/47/8
f 21/54/18 22/55/18 24/53/18 23/56/18
f 1/1/12 23/52/12 25/57/12
f 2/4/13 26/58/13 24/53/13
f 23/59/19 24/60/19 26/61/19 25/62/19
f 1/1/1 25/57/1 3/2/1
f 2/4/2 4/6/2 26/58/2
f 25/63/20 26/64/20 4/8/20 3/7/20
