# Blender v2.93.1 OBJ File: ''
# www.blender.org
mtllib gso_rag_base_aps.mtl
o Cube_Cube.000
v -0.867977 -0.132023 1.500001
v -1.000000 -0.000000 1.600002
v -0.867977 0.132023 1.500001
v -1.132023 -0.132023 1.500001
v -1.132023 0.132023 1.500001
v 0.132023 -0.132023 1.500001
v 0.000000 -0.000000 1.600002
v 0.132023 0.132023 1.500001
v -0.132023 -0.132023 1.500001
v -0.132023 0.132023 1.500001
v 0.500002 -0.132023 0.867980
v 0.600002 -0.000000 1.000004
v 0.500002 0.132023 0.867980
v 0.500002 -0.132023 1.132026
v 0.500002 0.132023 1.132026
v 0.500001 -0.132022 -0.132020
v 0.600002 0.000001 0.000004
v 0.500002 0.132023 -0.132020
v 0.500001 -0.132022 0.132026
v 0.500002 0.132023 0.132026
v -0.132020 -0.132022 -0.499997
v 0.000003 0.000001 -0.599998
v -0.132020 0.132023 -0.499997
v 0.132026 -0.132022 -0.499997
v 0.132026 0.132023 -0.499997
v -1.132020 -0.132022 -0.499997
v -0.999996 0.000001 -0.599998
v -1.132020 0.132024 -0.499997
v -0.867974 -0.132022 -0.499997
v -0.867974 0.132023 -0.499997
v -1.499998 -0.132022 0.132023
v -1.599998 0.000001 0.000000
v -1.499998 0.132023 0.132023
v -1.499998 -0.132022 -0.132023
v -1.499998 0.132023 -0.132023
v -1.499998 -0.132023 1.132023
v -1.599998 -0.000000 1.000000
v -1.499998 0.132023 1.132023
v -1.499998 -0.132023 0.867977
v -1.499998 0.132023 0.867977
vt 0.320286 0.926624
vt 0.320286 0.998777
vt 0.284543 0.962755
vt 0.247709 0.926624
vt 0.247709 0.998777
vt 0.320286 0.926624
vt 0.320286 0.998777
vt 0.284544 0.962755
vt 0.247709 0.926624
vt 0.247709 0.998777
vt 0.247709 0.926624
vt 0.247709 0.998777
vt 0.284544 0.962755
vt 0.320286 0.926624
vt 0.320286 0.998777
vt 0.247709 0.926624
vt 0.247709 0.998777
vt 0.284544 0.962755
vt 0.320286 0.926624
vt 0.320286 0.998777
vt 0.247709 0.926624
vt 0.247709 0.998777
vt 0.284544 0.962755
vt 0.320286 0.926624
vt 0.320286 0.998777
vt 0.247709 0.926624
vt 0.247709 0.998777
vt 0.284543 0.962755
vt 0.320286 0.926624
vt 0.320286 0.998777
vt 0.320286 0.926624
vt 0.320286 0.998777
vt 0.284544 0.962755
vt 0.247709 0.926624
vt 0.247709 0.998777
vt 0.320286 0.926624
vt 0.320286 0.998777
vt 0.284544 0.962755
vt 0.247709 0.926624
vt 0.247709 0.998777
vn 0.6038 0.0000 0.7971
vn -0.6038 0.0000 0.7971
vn 0.0000 0.6038 0.7971
vn 0.0000 -0.6038 0.7971
vn 0.7971 0.0000 -0.6038
vn 0.7971 0.0000 0.6038
vn 0.7971 0.6038 0.0000
vn 0.7971 -0.6038 -0.0000
vn -0.6038 0.0000 -0.7971
vn 0.6038 0.0000 -0.7971
vn 0.0000 0.6038 -0.7971
vn 0.0000 -0.6038 -0.7971
vn -0.7971 0.0000 0.6038
vn -0.7971 0.0000 -0.6038
vn -0.7971 0.6038 0.0000
vn -0.7971 -0.6038 -0.0000
usemtl Material.002
s off
f 1/1/1 3/2/1 2/3/1
f 4/4/2 2/3/2 5/5/2
f 2/3/3 3/2/3 5/5/3
f 4/4/4 1/1/4 2/3/4
f 6/6/1 8/7/1 7/8/1
f 9/9/2 7/8/2 10/10/2
f 7/8/3 8/7/3 10/10/3
f 9/9/4 6/6/4 7/8/4
f 11/11/5 13/12/5 12/13/5
f 14/14/6 12/13/6 15/15/6
f 12/13/7 13/12/7 15/15/7
f 14/14/8 11/11/8 12/13/8
f 16/16/5 18/17/5 17/18/5
f 19/19/6 17/18/6 20/20/6
f 17/18/7 18/17/7 20/20/7
f 19/19/8 16/16/8 17/18/8
f 21/21/9 23/22/9 22/23/9
f 24/24/10 22/23/10 25/25/10
f 22/23/11 23/22/11 25/25/11
f 24/24/12 21/21/12 22/23/12
f 26/26/9 28/27/9 27/28/9
f 29/29/10 27/28/10 30/30/10
f 27/28/11 28/27/11 30/30/11
f 29/29/12 26/26/12 27/28/12
f 31/31/13 33/32/13 32/33/13
f 34/34/14 32/33/14 35/35/14
f 32/33/15 33/32/15 35/35/15
f 34/34/16 31/31/16 32/33/16
f 36/36/13 38/37/13 37/38/13
f 39/39/14 37/38/14 40/40/14
f 37/38/15 38/37/15 40/40/15
f 39/39/16 36/36/16 37/38/16
